<svg width="400" height="100" viewBox="0 0 400 100" fill="none" xmlns="http://www.w3.org/2000/svg">
  <defs>
    <linearGradient id="logo_gradient" x1="0" y1="0" x2="0" y2="1">
      <stop offset="0%" stop-color="#FFD700" />
      <stop offset="100%" stop-color="#FFA500" />
    </linearGradient>
  </defs>
  
  <g transform="translate(10, 15)">
    <path d="M35 45 C35 38, 28 32, 20 32 C12 32, 5 38, 5 45 L5 55 C5 62, 35 62, 35 55 Z" fill="url(#logo_gradient)" />
    <circle cx="20" cy="25" r="8" fill="url(#logo_gradient)" />
    <path d="M10 18 L20 14 L30 18 L20 22 Z" fill="url(#logo_gradient)" />
    <path d="M30 18 L30 24" stroke="url(#logo_gradient)" stroke-width="2" />
    
    <path d="M95 45 C95 38, 88 32, 80 32 C72 32, 65 38, 65 45 L65 55 C65 62, 95 62, 95 55 Z" fill="url(#logo_gradient)" />
    <circle cx="80" cy="25" r="8" fill="url(#logo_gradient)" />
    <path d="M70 18 L80 14 L90 18 L80 22 Z" fill="url(#logo_gradient)" />
    <path d="M90 18 L90 24" stroke="url(#logo_gradient)" stroke-width="2" />

    <path d="M70 50 C70 40, 60 32, 50 32 C40 32, 30 40, 30 50 L30 65 C30 75, 70 75, 70 65 Z" fill="url(#logo_gradient)" />
    <circle cx="50" cy="22" r="10" fill="url(#logo_gradient)" />
    <path d="M38 14 L50 8 L62 14 L50 20 Z" fill="url(#logo_gradient)" />
    <path d="M62 14 L62 22" stroke="url(#logo_gradient)" stroke-width="2" />
  </g>

  <text x="120" y="55" fill="#1A1A1A" font-family="Arial, sans-serif" font-size="24" font-weight="bold">AI PROCTORING</text>
  <text x="120" y="80" fill="#444444" font-family="Arial, sans-serif" font-size="18">EXAMINATION SYSTEM</text>
</svg>
